<?xml version="1.0" encoding="UTF-8"?>
<svg width="14px" height="14px" viewBox="0 0 14 14" version="1.1" xmlns="http://www.w3.org/2000/svg" xmlns:xlink="http://www.w3.org/1999/xlink">
    <!-- Generator: Sketch 55.2 (78181) - https://sketchapp.com -->
    <title>TOAST-警示 Copy 2svg</title>
    <desc>Created with Sketch.</desc>
    <g id="控件" stroke="none" stroke-width="1" fill="none" fill-rule="evenodd">
        <g id="弹层控件" transform="translate(-1115.000000, -1359.000000)">
            <g id="Group-56-Copy-7" transform="translate(1059.000000, 1140.000000)">
                <g id="Group-7" transform="translate(40.000000, 206.000000)">
                    <g id="Group-20" transform="translate(16.000000, 10.000000)">
                        <g id="TOAST-警示-Copy-2" transform="translate(0.000000, 3.000000)">
                            <rect id="Rectangle-7-Copy-29" opacity="0.212834821" x="0" y="0" width="14" height="14"></rect>
                            <path d="M7,14 C3.13400675,14 0,10.8659932 0,7 C0,3.13400675 3.13400675,0 7,0 C10.8659932,0 14,3.13400675 14,7 C14,10.8659932 10.8659932,14 7,14 Z M6.22222222,3.11111111 L6.22222222,8.55555556 L7.77777778,8.55555556 L7.77777778,3.11111111 L6.22222222,3.11111111 Z M6.22222222,10.1111111 L6.22222222,11.6666667 L7.77777778,11.6666667 L7.77777778,10.1111111 L6.22222222,10.1111111 Z" id="Combined-Shape" fill="#FAAD14"></path>
                        </g>
                    </g>
                </g>
            </g>
        </g>
    </g>
</svg>